<?xml version="1.0" encoding="utf-8"?>
<!-- Generator: Adobe Illustrator 27.0.0, SVG Export Plug-In . SVG Version: 6.00 Build 0)  -->
<svg version="1.1" id="Шар_1" xmlns="http://www.w3.org/2000/svg" xmlns:xlink="http://www.w3.org/1999/xlink" x="0px" y="0px"
	 viewBox="0 0 4500 4500" style="enable-background:new 0 0 4500 4500;" xml:space="preserve">
<style type="text/css">
	.st0{fill:#E3DCCC;}
	.st1{fill:#9E9B8A;}
	.st2{fill:#CEC8B8;}
	.st3{fill:#929083;}
	.st4{fill:#385054;}
	.st5{fill:#546869;}
	.st6{fill:#425758;}
	.st7{fill:#9D9485;}
	.st8{fill:#959281;}
	.st9{fill:#C7B99F;}
	.st10{fill:#8A8572;}
	.st11{fill:#A69F8C;}
	.st12{fill:#97927F;}
	.st13{fill:none;stroke:#1D1D1B;stroke-miterlimit:10;}
	.st14{fill:#C2BAA5;}
	.st15{fill:#D6CFBD;}
	.st16{fill:#C2B7A3;}
	.st17{fill:#E5DECC;}
	.st18{fill:#A39A89;}
	.st19{fill:#777060;}
	.st20{fill:#A49C87;}
	.st21{fill:#AEA38F;}
	.st22{fill:#4B6063;}
	.st23{fill:#3A4E55;}
	.st24{fill:#908776;}
	.st25{fill:#726958;}
	.st26{fill:#6D604D;}
	.st27{fill:#FBDEB6;}
	.st28{fill:#D2C8AF;}
	.st29{fill:#DED8CA;}
	.st30{fill:#ECE3D2;}
	.st31{fill:#707473;}
	.st32{fill:#283A3C;}
	.st33{fill:#FEFCFD;}
	.st34{fill:#EEE4CB;}
	.st35{fill:#FBEDD2;}
	.st36{fill:#C1B295;}
	.st37{fill:#B9B09F;}
	.st38{fill:#122A2C;}
	.st39{fill:#968F7C;}
	.st40{fill:#FFEACD;}
	.st41{fill:#F6C38E;}
	.st42{fill:#FEE6CA;}
	.st43{fill:#F4B16A;}
	.st44{fill:#705C44;}
	.st45{fill:#A17544;}
	.st46{fill:#8B6A41;}
	.st47{fill:#BB9E7E;}
	.st48{fill:#BCA07B;}
	.st49{fill:#D3B591;}
	.st50{fill:#DBA064;}
	.st51{fill:#F4BA7A;}
	.st52{fill:#E8B272;}
	.st53{fill:#EECDA0;}
	.st54{fill:#FDE1BC;}
	.st55{fill:#F2CFA5;}
	.st56{fill:#FEE9CE;}
	.st57{fill:#F9BE7A;}
	.st58{fill:#A37748;}
	.st59{fill:#C59358;}
	.st60{fill:#EEB36F;}
	.st61{fill:#635D4D;}
	.st62{fill:#806B4E;}
	.st63{fill:#D79558;}
	.st64{fill:#B07D48;}
	.st65{fill:#8A7153;}
	.st66{fill:#FEFEFE;}
	.st67{fill:#FEF8E0;}
	.st68{fill:#FED691;}
	.st69{fill:#FED9A5;}
	.st70{fill:#FBEBD4;}
	.st71{fill:#866B4D;}
	.st72{fill:#3A484B;}
	.st73{fill:#FDF5E2;}
	.st74{fill:#FFF7DA;}
	.st75{fill:#FDD397;}
	.st76{fill:#C2B7A5;}
	.st77{fill:#0D3034;}
	.st78{fill:#FEF1D1;}
</style>
<image style="display:none;overflow:visible;opacity:0.75;" width="1024" height="1024" xlink:href="67A44273.jpg"  transform="matrix(4.3947 0 0 4.3947 0 0)">
</image>
<polygon class="st0" points="3139.2,2466.1 3066.7,2144.4 2773.6,1930 "/>
<polygon class="st1" points="3394.5,2498.8 3205.6,2357.9 3204.5,2613.2 3098.6,2161.6 3392.3,2494.8 "/>
<polygon class="st2" points="3392.3,2494.8 3098.6,2161.6 3016.6,1812.5 "/>
<polygon class="st3" points="3061.4,2118.2 2758.2,1899.3 2946.7,1767.4 "/>
<polygon class="st4" points="2621.4,1716.5 2758.2,1899.3 2773.6,1657.3 "/>
<polygon class="st5" points="2946.7,1767.4 2928.9,1713.1 2773.6,1657.3 2758.2,1899.3 "/>
<polygon class="st6" points="2928.9,1713.1 2773.6,1657.3 2894.5,1606.9 "/>
<polygon class="st7" points="2621.4,1716.5 2430.9,1638.4 2584.9,1580.7 "/>
<polygon class="st8" points="2773.6,1657.3 2584.9,1580.7 2621.4,1716.5 "/>
<polygon class="st9" points="2430.9,1638.4 2394.1,1393 2584.9,1580.7 "/>
<polygon class="st10" points="3098.1,1507.9 2935.6,1589.8 2900.6,1604.4 2964.8,1694.1 "/>
<polygon class="st11" points="3188,1731.8 2989.5,1731.8 2964.8,1694.1 3098.1,1507.9 "/>
<polygon class="st12" points="3317.1,2053.3 2989.5,1731.8 3188,1731.8 "/>
<line class="st13" x1="3188.9" y1="1731.8" x2="3188" y2="1731.8"/>
<polygon class="st14" points="2584.9,1580.7 2935.6,1589.8 2773.6,1657.3 "/>
<polygon class="st15" points="3098.1,1507.9 2763.3,1459.7 2584.9,1580.7 2935.6,1589.8 "/>
<polygon class="st16" points="2394.1,1393 2763.3,1459.7 2584.9,1580.7 "/>
<polygon class="st17" points="3029.4,1317.2 2394.1,1393 2763.3,1459.7 "/>
<polygon class="st18" points="2569.8,1266.7 2419.6,1390 3029.4,1317.2 "/>
<polygon class="st19" points="2897.9,2170.6 2820.3,2383.9 2732.7,2238.7 2758.2,1908.5 "/>
<polygon class="st20" points="3041.4,2750.3 2820.3,2383.9 2897.9,2170.6 2994.7,2352 "/>
<polygon class="st21" points="2930.8,2656.1 2676,3105 2777.1,2485.6 2810.8,2418.7 "/>
<polygon class="st22" points="2526.7,2561.6 2523.9,2989 2358.9,2767.4 2426.3,2750.3 2454.7,2674.5 "/>
<polygon class="st23" points="2810.8,2418.7 2523.9,2989 2526.7,2561.6 2732.7,2238.7 "/>
<polygon class="st24" points="2508.3,1277.4 2402.8,1351.9 2265.6,1279.4 "/>
<polygon class="st25" points="2730.4,1120.4 2508.3,1277.4 2265.6,1279.4 2250.1,1271.3 "/>
<polygon class="st26" points="2250.1,1279.4 2394.1,1393 2250,1666.5 "/>
<polygon class="st17" points="2430.9,1638.4 2250,1666.5 2394.1,1393 "/>
<polygon class="st27" points="2250,1866.4 2250,1666.5 2430.9,1638.4 2465.4,1752.4 "/>
<polygon class="st28" points="2394.1,1985.9 2394.1,1790.1 2465.4,1752.4 2515.9,1920 "/>
<polygon class="st29" points="2288.4,1921.3 2394.1,1985.9 2412,2368.1 "/>
<polygon class="st30" points="2751.6,1908.5 2703.6,2051 2602,1985.9 "/>
<polygon class="st31" points="2515.9,1920 2602,1985.9 2505.5,1945.8 2394.1,1985.9 "/>
<polygon class="st32" points="2402.8,2170.6 2448.3,2066.3 2602,1985.9 2505.5,1945.8 2394.1,1985.9 "/>
<polygon class="st33" points="2407.9,2033.6 2481.5,2003.5 2421.1,1976.2 "/>
<polygon class="st34" points="2459.7,2060.3 2501.4,2198.1 2602,1985.9 "/>
<polygon class="st35" points="2703.6,2051 2501.4,2198.1 2602,1985.9 "/>
<polygon class="st36" points="2526.7,2561.6 2501.4,2198.1 2703.6,2051 2676.8,2217.2 "/>
<polygon class="st37" points="2250,3372.7 2471.5,3017.6 2340.5,2775.3 2262.4,2791.7 "/>
<polygon class="st38" points="2460.5,2665.3 2262.4,2593.3 2262.4,2515.2 2298.4,2483.8 2412,2428.6 2412,2387.3 2250,2457 
	2250.1,2613.9 2449.5,2688.3 "/>
<polygon class="st39" points="2412,2387.3 2250,2457 2088,2387.3 2250,2373.2 "/>
<polygon class="st40" points="1360.8,2466.1 1433.3,2144.4 1726.4,1930 "/>
<polygon class="st41" points="1105.5,2498.8 1294.4,2357.9 1295.5,2613.2 1401.4,2161.6 1107.7,2494.8 "/>
<polygon class="st42" points="1107.7,2494.8 1401.4,2161.6 1483.4,1812.5 "/>
<polygon class="st43" points="1438.6,2118.2 1741.8,1899.3 1553.3,1767.4 "/>
<polygon class="st44" points="1878.6,1716.5 1741.8,1899.3 1726.4,1657.3 "/>
<polygon class="st45" points="1553.3,1767.4 1571.1,1713.1 1726.4,1657.3 1741.8,1899.3 "/>
<polygon class="st46" points="1571.1,1713.1 1726.4,1657.3 1605.5,1606.9 "/>
<polygon class="st47" points="1878.6,1716.5 2069.1,1638.4 1915.1,1580.7 "/>
<polygon class="st48" points="1726.4,1657.3 1915.1,1580.7 1878.6,1716.5 "/>
<polygon class="st49" points="2069.1,1638.4 2105.9,1393 1915.1,1580.7 "/>
<polygon class="st50" points="1401.9,1507.9 1564.4,1589.8 1599.4,1604.4 1535.2,1694.1 "/>
<polygon class="st51" points="1312,1731.8 1510.5,1731.8 1535.2,1694.1 1401.9,1507.9 "/>
<polygon class="st52" points="1182.9,2053.3 1510.5,1731.8 1312,1731.8 "/>
<line class="st13" x1="1312" y1="1731.8" x2="1311.1" y2="1731.8"/>
<polygon class="st53" points="1915.1,1580.7 1564.4,1589.8 1726.4,1657.3 "/>
<polygon class="st54" points="1401.9,1507.9 1736.7,1459.7 1915.1,1580.7 1564.4,1589.8 "/>
<polygon class="st55" points="2105.9,1393 1736.7,1459.7 1915.1,1580.7 "/>
<polygon class="st56" points="1470.6,1317.2 2105.9,1393 1736.7,1459.7 "/>
<polygon class="st57" points="1930.2,1266.7 2080.4,1390 1470.6,1317.2 "/>
<polygon class="st58" points="1602.1,2170.6 1679.7,2383.9 1767.3,2238.7 1741.8,1908.5 "/>
<polygon class="st59" points="1458.6,2750.3 1679.7,2383.9 1602.1,2170.6 1505.3,2352 "/>
<polygon class="st60" points="1569.2,2656.1 1824,3105 1722.9,2485.6 1689.2,2418.7 "/>
<polygon class="st61" points="1973.3,2561.6 1976.1,2989 2141.1,2767.4 2073.7,2750.3 2045.3,2674.5 "/>
<polygon class="st62" points="1689.2,2418.7 1976.1,2989 1973.3,2561.6 1767.3,2238.7 "/>
<polygon class="st63" points="1991.7,1277.4 2097.2,1351.9 2234.4,1279.4 "/>
<polygon class="st64" points="1769.6,1120.4 1991.7,1277.4 2234.4,1279.4 2249.9,1271.3 "/>
<polygon class="st65" points="2249.9,1279.4 2105.9,1393 2250,1666.5 "/>
<polygon class="st66" points="2069.1,1638.4 2250,1666.5 2105.9,1393 "/>
<polygon class="st67" points="2250,1866.4 2250,1666.5 2069.1,1638.4 2034.6,1752.4 "/>
<polygon class="st68" points="2105.9,1985.9 2105.9,1790.1 2034.6,1752.4 1984.1,1920 "/>
<polygon class="st69" points="2211.6,1921.3 2105.9,1985.9 2088,2368.1 "/>
<polygon class="st70" points="1748.4,1908.5 1796.4,2051 1898,1985.9 "/>
<polygon class="st71" points="1984.1,1920 1898,1985.9 1994.5,1945.8 2105.9,1985.9 "/>
<polygon class="st72" points="2097.2,2170.6 2051.7,2066.3 1898,1985.9 1994.5,1945.8 2105.9,1985.9 "/>
<polygon class="st33" points="2092.1,2033.6 2018.5,2003.5 2078.9,1976.2 "/>
<polygon class="st73" points="2040.3,2060.3 1998.6,2198.1 1898,1985.9 "/>
<polygon class="st74" points="1796.4,2051 1998.6,2198.1 1898,1985.9 "/>
<polygon class="st75" points="1973.3,2561.6 1998.6,2198.1 1796.4,2051 1823.2,2217.2 "/>
<polygon class="st76" points="2250,3372.7 2028.5,3017.6 2159.5,2775.3 2237.6,2791.7 "/>
<polygon class="st77" points="2039.5,2665.3 2237.6,2593.3 2237.6,2515.2 2201.6,2483.8 2088,2428.6 2088,2387.3 2250,2457 
	2250.1,2613.9 2050.5,2688.3 "/>
<polygon class="st78" points="2250,1866.4 2250,2373.2 2088,2387.3 2088,2368.1 2211.6,1921.3 2105.9,1985.9 2105.9,1790.1 "/>
</svg>
